<svg width="330" height="55" viewBox="0 0 330 55" fill="none" xmlns="http://www.w3.org/2000/svg">
<path d="M0 8C0 3.58172 3.58172 0 8 0H322C326.418 0 330 3.58172 330 8V47C330 51.4183 326.418 55 322 55H7.99999C3.58171 55 0 51.4183 0 47V8Z" fill="#00F2B8"/>
<path d="M231.006 41.875L232.865 35.044C231.64 32.9442 230.996 30.556 231 28.125C231 20.5309 237.156 14.375 244.75 14.375C252.344 14.375 258.5 20.5309 258.5 28.125C258.5 35.7191 252.344 41.875 244.75 41.875C242.32 41.8789 239.933 41.2359 237.834 40.0119L231.006 41.875ZM239.788 21.6735C239.61 21.6845 239.437 21.7313 239.278 21.811C239.128 21.8955 238.992 22.0011 238.873 22.1245C238.708 22.2799 238.615 22.4146 238.514 22.5452C238.006 23.2066 237.733 24.0184 237.738 24.8525C237.74 25.5262 237.916 26.1821 238.191 26.7954C238.754 28.0356 239.679 29.3487 240.901 30.5656C241.196 30.8585 241.483 31.1528 241.792 31.4264C243.31 32.7621 245.117 33.7254 247.072 34.2396L247.855 34.3593C248.109 34.373 248.364 34.3538 248.619 34.3414C249.02 34.3207 249.411 34.2123 249.765 34.0238C249.945 33.931 250.12 33.8301 250.291 33.7212C250.291 33.7212 250.35 33.6827 250.463 33.5975C250.649 33.46 250.763 33.3624 250.917 33.2015C251.031 33.0833 251.13 32.9444 251.206 32.7863C251.313 32.5621 251.42 32.1345 251.464 31.7784C251.497 31.5061 251.488 31.3576 251.483 31.2655C251.478 31.1184 251.356 30.9657 251.222 30.9011L250.422 30.5422C250.422 30.5422 249.226 30.0211 248.496 29.6884C248.419 29.6548 248.336 29.6357 248.252 29.632C248.158 29.6223 248.063 29.6329 247.973 29.663C247.884 29.6932 247.802 29.7421 247.732 29.8066V29.8039C247.726 29.8039 247.633 29.8823 246.639 31.0868C246.582 31.1634 246.504 31.2214 246.413 31.2532C246.323 31.285 246.226 31.2893 246.133 31.2655C246.044 31.2415 245.956 31.2112 245.871 31.1748C245.7 31.1033 245.641 31.0758 245.524 31.0249L245.517 31.0221C244.731 30.6787 244.002 30.2148 243.359 29.6471C243.185 29.4959 243.024 29.3309 242.859 29.1714C242.318 28.6533 241.847 28.0673 241.457 27.4279L241.376 27.2972C241.317 27.2095 241.27 27.1148 241.236 27.0154C241.183 26.8132 241.319 26.651 241.319 26.651C241.319 26.651 241.654 26.2852 241.809 26.0872C241.938 25.9227 242.059 25.7515 242.171 25.5744C242.333 25.3131 242.384 25.045 242.298 24.8374C241.913 23.8969 241.515 22.9605 241.105 22.031C241.024 21.8467 240.783 21.7147 240.565 21.6886C240.49 21.6804 240.416 21.6721 240.342 21.6666C240.157 21.6575 239.972 21.6607 239.788 21.6735Z" fill="#00363A"/>
<path d="M86.5422 18.032H89.0622L91.1742 23.816L93.3102 18.032H95.8302L92.9022 25.616L95.4462 31.88L100.75 17.96H103.702L96.7182 35H94.3902L91.1982 27.368L87.9822 35H85.6302L78.6702 17.96H81.5982L86.9262 31.88L89.4702 25.616L86.5422 18.032ZM116.633 35H113.993V27.968C113.993 26.832 113.785 25.984 113.369 25.424C112.953 24.864 112.369 24.584 111.617 24.584C111.137 24.584 110.649 24.712 110.153 24.968C109.673 25.224 109.241 25.576 108.857 26.024C108.473 26.456 108.193 26.96 108.017 27.536V35H105.377V17.48H108.017V24.968C108.497 24.104 109.153 23.432 109.985 22.952C110.817 22.472 111.713 22.232 112.673 22.232C113.713 22.232 114.521 22.472 115.097 22.952C115.673 23.416 116.073 24.04 116.297 24.824C116.521 25.592 116.633 26.432 116.633 27.344V35ZM118.785 31.328C118.785 30.528 119.009 29.832 119.457 29.24C119.905 28.632 120.529 28.168 121.329 27.848C122.145 27.512 123.081 27.344 124.137 27.344C124.697 27.344 125.265 27.392 125.841 27.488C126.433 27.568 126.953 27.688 127.401 27.848V27.056C127.401 26.176 127.137 25.488 126.609 24.992C126.081 24.496 125.321 24.248 124.329 24.248C123.641 24.248 122.977 24.368 122.337 24.608C121.697 24.848 121.033 25.2 120.345 25.664L119.457 23.888C120.289 23.344 121.121 22.936 121.953 22.664C122.801 22.376 123.689 22.232 124.617 22.232C126.297 22.232 127.617 22.68 128.577 23.576C129.553 24.456 130.041 25.712 130.041 27.344V32.024C130.041 32.328 130.089 32.544 130.185 32.672C130.297 32.8 130.481 32.872 130.737 32.888V35C130.497 35.048 130.281 35.08 130.089 35.096C129.897 35.112 129.737 35.12 129.609 35.12C129.033 35.12 128.601 34.984 128.313 34.712C128.041 34.424 127.881 34.104 127.833 33.752L127.761 33.032C127.217 33.736 126.521 34.28 125.673 34.664C124.825 35.048 123.969 35.24 123.105 35.24C122.273 35.24 121.529 35.072 120.873 34.736C120.217 34.384 119.705 33.912 119.337 33.32C118.969 32.728 118.785 32.064 118.785 31.328ZM126.777 32.096C127.193 31.68 127.401 31.288 127.401 30.92V29.48C126.457 29.128 125.497 28.952 124.521 28.952C123.561 28.952 122.777 29.152 122.169 29.552C121.577 29.936 121.281 30.456 121.281 31.112C121.281 31.656 121.497 32.16 121.929 32.624C122.377 33.072 123.017 33.296 123.849 33.296C124.409 33.296 124.953 33.184 125.481 32.96C126.009 32.736 126.441 32.448 126.777 32.096ZM140.134 34.352C139.798 34.512 139.334 34.696 138.742 34.904C138.15 35.096 137.518 35.192 136.846 35.192C136.014 35.192 135.294 34.968 134.686 34.52C134.094 34.072 133.798 33.344 133.798 32.336V24.488H132.142V22.448H133.798V18.32H136.438V22.448H139.174V24.488H136.438V31.496C136.47 31.944 136.606 32.272 136.846 32.48C137.102 32.672 137.414 32.768 137.782 32.768C138.15 32.768 138.502 32.704 138.838 32.576C139.174 32.448 139.422 32.344 139.582 32.264L140.134 34.352ZM146.427 35.24C145.371 35.24 144.371 35.064 143.427 34.712C142.483 34.36 141.675 33.848 141.003 33.176L141.987 31.4C142.707 32.04 143.427 32.504 144.147 32.792C144.867 33.08 145.595 33.224 146.331 33.224C147.067 33.224 147.667 33.088 148.131 32.816C148.595 32.528 148.827 32.112 148.827 31.568C148.827 31.184 148.707 30.888 148.467 30.68C148.227 30.472 147.875 30.304 147.411 30.176C146.963 30.048 146.419 29.888 145.779 29.696C144.883 29.424 144.131 29.144 143.523 28.856C142.915 28.552 142.459 28.184 142.155 27.752C141.851 27.32 141.699 26.768 141.699 26.096C141.699 24.88 142.155 23.936 143.067 23.264C143.979 22.576 145.171 22.232 146.643 22.232C147.555 22.232 148.395 22.376 149.163 22.664C149.947 22.936 150.635 23.368 151.227 23.96L150.099 25.712C149.011 24.72 147.811 24.224 146.499 24.224C145.923 24.224 145.387 24.336 144.891 24.56C144.411 24.784 144.171 25.2 144.171 25.808C144.171 26.32 144.387 26.688 144.819 26.912C145.251 27.136 145.891 27.376 146.739 27.632C147.699 27.92 148.523 28.208 149.211 28.496C149.915 28.768 150.451 29.128 150.819 29.576C151.203 30.008 151.395 30.608 151.395 31.376C151.395 32.592 150.939 33.544 150.027 34.232C149.115 34.904 147.915 35.24 146.427 35.24ZM152.84 31.328C152.84 30.528 153.064 29.832 153.512 29.24C153.96 28.632 154.584 28.168 155.384 27.848C156.2 27.512 157.136 27.344 158.192 27.344C158.752 27.344 159.32 27.392 159.896 27.488C160.488 27.568 161.008 27.688 161.456 27.848V27.056C161.456 26.176 161.192 25.488 160.664 24.992C160.136 24.496 159.376 24.248 158.384 24.248C157.696 24.248 157.032 24.368 156.392 24.608C155.752 24.848 155.088 25.2 154.4 25.664L153.512 23.888C154.344 23.344 155.176 22.936 156.008 22.664C156.856 22.376 157.744 22.232 158.672 22.232C160.352 22.232 161.672 22.68 162.632 23.576C163.608 24.456 164.096 25.712 164.096 27.344V32.024C164.096 32.328 164.144 32.544 164.24 32.672C164.352 32.8 164.536 32.872 164.792 32.888V35C164.552 35.048 164.336 35.08 164.144 35.096C163.952 35.112 163.792 35.12 163.664 35.12C163.088 35.12 162.656 34.984 162.368 34.712C162.096 34.424 161.936 34.104 161.888 33.752L161.816 33.032C161.272 33.736 160.576 34.28 159.728 34.664C158.88 35.048 158.024 35.24 157.16 35.24C156.328 35.24 155.584 35.072 154.928 34.736C154.272 34.384 153.76 33.912 153.392 33.32C153.024 32.728 152.84 32.064 152.84 31.328ZM160.832 32.096C161.248 31.68 161.456 31.288 161.456 30.92V29.48C160.512 29.128 159.552 28.952 158.576 28.952C157.616 28.952 156.832 29.152 156.224 29.552C155.632 29.936 155.336 30.456 155.336 31.112C155.336 31.656 155.552 32.16 155.984 32.624C156.432 33.072 157.072 33.296 157.904 33.296C158.464 33.296 159.008 33.184 159.536 32.96C160.064 32.736 160.496 32.448 160.832 32.096ZM174.427 35.24C173.419 35.24 172.531 35 171.763 34.52C170.995 34.04 170.387 33.416 169.939 32.648V40.112H167.299V22.448H169.627V24.704C170.107 23.952 170.731 23.352 171.499 22.904C172.267 22.456 173.123 22.232 174.067 22.232C175.219 22.232 176.235 22.536 177.115 23.144C178.011 23.736 178.715 24.528 179.227 25.52C179.739 26.496 179.995 27.56 179.995 28.712C179.995 29.928 179.755 31.032 179.275 32.024C178.795 33 178.139 33.784 177.307 34.376C176.475 34.952 175.515 35.24 174.427 35.24ZM173.563 32.984C174.315 32.984 174.963 32.784 175.507 32.384C176.067 31.968 176.499 31.44 176.803 30.8C177.123 30.144 177.283 29.448 177.283 28.712C177.283 27.944 177.107 27.24 176.755 26.6C176.419 25.96 175.955 25.448 175.363 25.064C174.787 24.68 174.123 24.488 173.371 24.488C172.923 24.488 172.451 24.6 171.955 24.824C171.475 25.048 171.051 25.344 170.683 25.712C170.315 26.08 170.067 26.496 169.939 26.96V30.248C170.259 31.016 170.747 31.664 171.403 32.192C172.075 32.72 172.795 32.984 173.563 32.984ZM189.497 35.24C188.489 35.24 187.601 35 186.833 34.52C186.065 34.04 185.457 33.416 185.009 32.648V40.112H182.369V22.448H184.697V24.704C185.177 23.952 185.801 23.352 186.569 22.904C187.337 22.456 188.193 22.232 189.137 22.232C190.289 22.232 191.305 22.536 192.185 23.144C193.081 23.736 193.785 24.528 194.297 25.52C194.809 26.496 195.065 27.56 195.065 28.712C195.065 29.928 194.825 31.032 194.345 32.024C193.865 33 193.209 33.784 192.377 34.376C191.545 34.952 190.585 35.24 189.497 35.24ZM188.633 32.984C189.385 32.984 190.033 32.784 190.577 32.384C191.137 31.968 191.569 31.44 191.873 30.8C192.193 30.144 192.353 29.448 192.353 28.712C192.353 27.944 192.177 27.24 191.825 26.6C191.489 25.96 191.025 25.448 190.433 25.064C189.857 24.68 189.193 24.488 188.441 24.488C187.993 24.488 187.521 24.6 187.025 24.824C186.545 25.048 186.121 25.344 185.753 25.712C185.385 26.08 185.137 26.496 185.009 26.96V30.248C185.329 31.016 185.817 31.664 186.473 32.192C187.145 32.72 187.865 32.984 188.633 32.984ZM204.567 35.24C203.559 35.24 202.671 35 201.903 34.52C201.135 34.04 200.527 33.416 200.079 32.648V40.112H197.439V22.448H199.767V24.704C200.247 23.952 200.871 23.352 201.639 22.904C202.407 22.456 203.263 22.232 204.207 22.232C205.359 22.232 206.375 22.536 207.255 23.144C208.151 23.736 208.855 24.528 209.367 25.52C209.879 26.496 210.135 27.56 210.135 28.712C210.135 29.928 209.895 31.032 209.415 32.024C208.935 33 208.279 33.784 207.447 34.376C206.615 34.952 205.655 35.24 204.567 35.24ZM203.703 32.984C204.455 32.984 205.103 32.784 205.647 32.384C206.207 31.968 206.639 31.44 206.943 30.8C207.263 30.144 207.423 29.448 207.423 28.712C207.423 27.944 207.247 27.24 206.895 26.6C206.559 25.96 206.095 25.448 205.503 25.064C204.927 24.68 204.263 24.488 203.511 24.488C203.063 24.488 202.591 24.6 202.095 24.824C201.615 25.048 201.191 25.344 200.823 25.712C200.455 26.08 200.207 26.496 200.079 26.96V30.248C200.399 31.016 200.887 31.664 201.543 32.192C202.215 32.72 202.935 32.984 203.703 32.984Z" fill="#00363A"/>
</svg>
