<svg width="80" height="80" viewBox="0 0 80 80" fill="none" xmlns="http://www.w3.org/2000/svg">
<g filter="url(#filter0_d)">
<circle cx="40" cy="32" r="30" fill="#00363A"/>
</g>
<path d="M44.4307 32C44.4307 32.8763 44.1709 33.733 43.684 34.4616C43.1972 35.1902 42.5052 35.7581 41.6955 36.0935C40.8859 36.4288 39.995 36.5166 39.1356 36.3456C38.2761 36.1747 37.4866 35.7527 36.8669 35.133C36.2473 34.5134 35.8253 33.7239 35.6543 32.8644C35.4834 32.0049 35.5711 31.114 35.9065 30.3044C36.2418 29.4948 36.8097 28.8028 37.5384 28.3159C38.267 27.8291 39.1236 27.5692 40 27.5692C41.1747 27.5706 42.3009 28.0378 43.1315 28.8685C43.9621 29.6991 44.4294 30.8253 44.4307 32ZM53.8461 25.9077V38.0923C53.8438 40.148 53.0261 42.1189 51.5725 43.5725C50.1189 45.0261 48.148 45.8438 46.0923 45.8461H33.9077C31.8519 45.8438 29.8811 45.0261 28.4274 43.5725C26.9738 42.1189 26.1562 40.148 26.1538 38.0923V25.9077C26.1562 23.852 26.9738 21.8811 28.4274 20.4275C29.8811 18.9739 31.8519 18.1562 33.9077 18.1538H46.0923C48.148 18.1562 50.1189 18.9739 51.5725 20.4275C53.0261 21.8811 53.8438 23.852 53.8461 25.9077V25.9077ZM46.6461 32C46.6461 30.6855 46.2563 29.4005 45.526 28.3076C44.7957 27.2146 43.7578 26.3628 42.5433 25.8597C41.3289 25.3567 39.9926 25.2251 38.7034 25.4815C37.4141 25.738 36.2299 26.371 35.3004 27.3005C34.3709 28.2299 33.738 29.4142 33.4815 30.7034C33.2251 31.9926 33.3567 33.3289 33.8597 34.5434C34.3627 35.7578 35.2146 36.7958 36.3076 37.5261C37.4005 38.2564 38.6855 38.6461 40 38.6461C41.762 38.6442 43.4514 37.9433 44.6973 36.6973C45.9433 35.4514 46.6441 33.7621 46.6461 32V32ZM48.8615 24.8C48.8615 24.4714 48.7641 24.1501 48.5815 23.8769C48.3989 23.6037 48.1394 23.3907 47.8358 23.2649C47.5322 23.1392 47.1981 23.1063 46.8758 23.1704C46.5535 23.2345 46.2574 23.3927 46.0251 23.6251C45.7927 23.8575 45.6345 24.1535 45.5704 24.4758C45.5062 24.7981 45.5391 25.1322 45.6649 25.4358C45.7907 25.7394 46.0036 25.9989 46.2769 26.1815C46.5501 26.3641 46.8713 26.4615 47.2 26.4615C47.6406 26.4615 48.0632 26.2865 48.3748 25.9749C48.6864 25.6633 48.8615 25.2407 48.8615 24.8Z" fill="#F5FEFF"/>
<defs>
<filter id="filter0_d" x="0" y="0" width="80" height="80" filterUnits="userSpaceOnUse" color-interpolation-filters="sRGB">
<feFlood flood-opacity="0" result="BackgroundImageFix"/>
<feColorMatrix in="SourceAlpha" type="matrix" values="0 0 0 0 0 0 0 0 0 0 0 0 0 0 0 0 0 0 127 0"/>
<feOffset dy="8"/>
<feGaussianBlur stdDeviation="5"/>
<feColorMatrix type="matrix" values="0 0 0 0 0 0 0 0 0 0.391035 0 0 0 0 0.42 0 0 0 0.15 0"/>
<feBlend mode="normal" in2="BackgroundImageFix" result="effect1_dropShadow"/>
<feBlend mode="normal" in="SourceGraphic" in2="effect1_dropShadow" result="shape"/>
</filter>
</defs>
</svg>
