<svg width="40" height="40" viewBox="0 0 40 40" fill="none" xmlns="http://www.w3.org/2000/svg">
<path d="M28.3333 31.6667V8.33341H11.6667V31.6667H28.3333ZM28.3333 1.66675C29.2174 1.66675 30.0652 2.01794 30.6904 2.64306C31.3155 3.26818 31.6667 4.11603 31.6667 5.00008V35.0001C31.6667 35.8841 31.3155 36.732 30.6904 37.3571C30.0652 37.9822 29.2174 38.3334 28.3333 38.3334H11.6667C10.7826 38.3334 9.93478 37.9822 9.30965 37.3571C8.68453 36.732 8.33334 35.8841 8.33334 35.0001V5.00008C8.33334 3.15008 9.81668 1.66675 11.6667 1.66675H28.3333ZM15 11.6667H25V15.0001H15V11.6667ZM15 18.3334H21.6667V21.6667H15V18.3334Z" fill="#F5FEFF"/>
</svg>
